PathFileType	4	(X/Y/Z)	C:\Users\86182\Documents\cortex\Trimmed_M4_L2.trc
DataRate	CameraRate	NumFrames	NumMarkers	Units	OrigDataRate	OrigDataStartFrame	OrigNumFrames
100.00	100.00	      84	2	mm	100.00	184	      1101
Frame#	Time	gripper			box			
		X1	Y1	Z1	X2	Y2	Z2	

184	1.830	279.04010	149.97769	229.00880	279.34500	148.47636	93.08797	
185	1.840	278.96884	150.01639	229.47336	279.29401	148.49765	93.55624	
186	1.850	278.83542	150.06577	229.95451	279.28220	148.51190	93.99710	
187	1.860	278.64206	150.12257	230.45126	279.26923	148.52571	94.42882	
188	1.870	278.37488	150.18871	230.96944	279.22815	148.54555	94.86424	
189	1.880	278.02917	150.26614	231.51143	279.17319	148.57100	95.29566	
190	1.890	277.63913	150.34938	232.06509	279.13287	148.59703	95.71040	
191	1.900	277.26660	150.42703	232.60828	279.10953	148.62102	96.11243	
192	1.910	276.96707	150.48947	233.12207	279.07877	148.64485	96.51968	
193	1.920	276.77258	150.53233	233.59747	279.02783	148.66997	96.94130	
194	1.930	276.69656	150.55455	234.03281	278.97946	148.69327	97.36671	
195	1.940	276.74127	150.55620	234.42973	278.96393	148.71101	97.78298	
196	1.950	276.90115	150.53802	234.79205	278.98129	148.72449	98.19437	
197	1.960	277.16272	150.50204	235.12639	279.00339	148.73918	98.61768	
198	1.970	277.49899	150.45317	235.44344	279.01340	148.75798	99.05994	
199	1.980	277.86743	150.39951	235.75804	279.03073	148.77754	99.50800	
200	1.990	278.22250	150.34947	236.08508	279.08307	148.79373	99.94593	
201	2.000	278.52545	150.31013	236.43666	279.16595	148.80783	100.37514	
202	2.010	278.74197	150.28847	236.82262	279.24310	148.82501	100.81212	
203	2.020	278.85071	150.28931	237.24686	279.28452	148.84775	101.26746	
204	2.030	278.85318	150.31213	237.70435	279.28885	148.87383	101.73517	
205	2.040	278.75555	150.35435	238.18945	279.25549	148.90248	102.21055	
206	2.050	278.55066	150.41637	238.70418	279.16174	148.93808	102.70398	
207	2.060	278.23868	150.49800	239.25008	278.99442	148.98410	103.22266	
208	2.070	277.85748	150.59184	239.81467	278.77927	149.03770	103.75269	
209	2.080	277.47272	150.68430	240.37386	278.55783	149.09268	104.27176	
210	2.090	277.14023	150.76350	240.90755	278.35803	149.14381	104.76840	
211	2.100	276.88589	150.82422	241.40826	278.19357	149.18741	105.24270	
212	2.110	276.71152	150.86705	241.87825	278.07086	149.22159	105.69833	
213	2.120	276.60641	150.89543	242.32436	277.98914	149.24649	106.13898	
214	2.130	276.55563	150.91269	242.75490	277.94055	149.26366	106.56844	
215	2.140	276.54474	150.92052	243.17746	277.91547	149.27470	106.99048	
216	2.150	276.56165	150.92009	243.59778	277.90933	149.28091	107.40765	
217	2.160	276.59625	150.91394	244.02028	277.92438	149.28282	107.82071	
218	2.170	276.63916	150.90558	244.44797	277.96567	149.28011	108.22945	
219	2.180	276.68225	150.89735	244.88095	278.03683	149.27234	108.63367	
220	2.190	276.72131	150.88939	245.31624	278.13864	149.25983	109.03204	
221	2.200	276.75552	150.88077	245.75116	278.26813	149.24348	109.42175	
222	2.210	276.78268	150.87109	246.18536	278.41623	149.22461	109.80167	
223	2.220	276.79739	150.86081	246.61922	278.56378	149.20615	110.17719	
224	2.230	276.79507	150.84979	247.05206	278.67578	149.19362	110.56322	
225	2.240	276.77524	150.83667	247.48279	278.70755	149.19270	110.97961	
226	2.250	276.74054	150.81993	247.91046	278.63654	149.20340	111.43477	
227	2.260	276.69403	150.79984	248.33511	278.48584	149.21880	111.91566	
228	2.270	276.63849	150.77872	248.75793	278.30203	149.23058	112.40074	
229	2.280	276.57788	150.75931	249.17960	278.12091	149.23380	112.87682	
230	2.290	276.51715	150.74243	249.59848	277.95920	149.22699	113.34069	
231	2.300	276.46082	150.72664	250.01321	277.82224	149.21127	113.79251	
232	2.310	276.41336	150.71063	250.42583	277.71082	149.18933	114.23242	
233	2.320	276.37869	150.69519	250.84061	277.62433	149.16393	114.66193	
234	2.330	276.35742	150.68257	251.26031	277.56223	149.13739	115.08493	
235	2.340	276.34570	150.67480	251.68489	277.52414	149.11223	115.50640	
236	2.350	276.33929	150.67270	252.11307	277.50864	149.09131	115.93008	
237	2.360	276.33688	150.67572	252.54425	277.51135	149.07745	116.35696	
238	2.370	276.33868	150.68225	252.97897	277.52457	149.07230	116.78600	
239	2.380	276.34473	150.69041	253.41797	277.54077	149.07509	117.21641	
240	2.390	276.35410	150.69891	253.86057	277.55585	149.08257	117.64826	
241	2.400	276.36487	150.70723	254.30440	277.56891	149.09123	118.08136	
242	2.410	276.37558	150.71524	254.74725	277.57901	149.09975	118.51524	
243	2.420	276.38632	150.72295	255.18845	277.58301	149.10861	118.94954	
244	2.430	276.39731	150.73033	255.62735	277.57785	149.11801	119.38327	
245	2.440	276.40652	150.73775	256.06161	277.56454	149.12721	119.81459	
246	2.450	276.41089	150.74596	256.48877	277.54852	149.13596	120.24242	
247	2.460	276.40887	150.75571	256.90887	277.53491	149.14523	120.66788	
248	2.470	276.40146	150.76672	257.32449	277.52386	149.15596	121.09252	
249	2.480	276.39139	150.77748	257.73785	277.51199	149.16759	121.51547	
250	2.490	276.38086	150.78619	258.14935	277.49783	149.17862	121.93419	
251	2.500	276.37073	150.79242	258.55841	277.48380	149.18806	122.34821	
252	2.510	276.36182	150.79784	258.96545	277.47333	149.19598	122.76082	
253	2.520	276.35645	150.80440	259.37305	277.46780	149.20313	123.17680	
254	2.530	276.35751	150.81194	259.78479	277.46756	149.20982	123.59834	
255	2.540	276.36652	150.81847	260.20309	277.47366	149.21519	124.02377	
256	2.550	276.38245	150.82254	260.62842	277.48618	149.21844	124.45018	
257	2.560	276.40244	150.82478	261.06030	277.50253	149.22064	124.87731	
258	2.570	276.42386	150.82680	261.49820	277.51941	149.22432	125.30832	
259	2.580	276.44513	150.82945	261.94119	277.53540	149.23094	125.74597	
260	2.590	276.46600	150.83241	262.38782	277.55087	149.23978	126.18861	
261	2.600	276.48593	150.83531	262.83600	277.56592	149.24915	126.63174	
262	2.610	276.50323	150.83936	263.28354	277.57898	149.25830	127.07307	
263	2.620	276.51590	150.84671	263.72879	277.58807	149.26744	127.51370	
264	2.630	276.52383	150.85815	264.17084	277.59308	149.27623	127.95370	
265	2.640	276.52853	150.87190	264.60815	277.59534	149.28345	128.38895	
266	2.650	276.53091	150.88527	265.03857	277.59494	149.28766	128.81422	
267	2.660	276.53052	150.89684	265.46124	277.58920	149.28848	129.22833	
